<?xml version="1.0" encoding="utf-8"?>
<!-- Generator: Adobe Illustrator 19.2.0, SVG Export Plug-In . SVG Version: 6.00 Build 0)  -->
<svg version="1.1" id="レイヤー_1" xmlns="http://www.w3.org/2000/svg" xmlns:xlink="http://www.w3.org/1999/xlink" x="0px"
	 y="0px" width="171px" height="131.7px" viewBox="0 0 171 131.7" style="enable-background:new 0 0 171 131.7;"
	 preserveAspectRatio="none"
	 xml:space="preserve">
<g>
	<g>
		<path style="fill:#FFFFFF;" d="M167.7,103.6c0,14-11.4,25.4-25.4,25.4H4.1V28.4C4.1,14.4,15.5,3,29.5,3h138.2V103.6z"/>
		<g>
			
				<linearGradient id="SVGID_1_" gradientUnits="userSpaceOnUse" x1="14.2163" y1="109.612" x2="54.1655" y2="109.612" gradientTransform="matrix(1.125 0 0 -1.125 97.7537 196.3468)">
				<stop  offset="0" style="stop-color:#007940"/>
				<stop  offset="0.2285" style="stop-color:#00873F"/>
				<stop  offset="0.7433" style="stop-color:#40A737"/>
				<stop  offset="1" style="stop-color:#5CB531"/>
			</linearGradient>
			<path style="fill:url(#SVGID_1_);" d="M122.7,77.8h10.5c0.3,0,1-0.1,1.3-0.1c2-0.4,3.7-2.2,3.7-4.7c0-2.4-1.7-4.2-3.7-4.7
				c-0.3-0.1-0.9-0.1-1.3-0.1h-10.5V77.8z"/>
			
				<linearGradient id="SVGID_2_" gradientUnits="userSpaceOnUse" x1="14.2177" y1="115.7898" x2="54.1288" y2="115.7898" gradientTransform="matrix(1.125 0 0 -1.125 97.7537 196.3468)">
				<stop  offset="0" style="stop-color:#007940"/>
				<stop  offset="0.2285" style="stop-color:#00873F"/>
				<stop  offset="0.7433" style="stop-color:#40A737"/>
				<stop  offset="1" style="stop-color:#5CB531"/>
			</linearGradient>
			<path style="fill:url(#SVGID_2_);" d="M132,11.5c-10,0-18.2,8.1-18.2,18.2v18.9h25.7c0.6,0,1.3,0,1.8,0.1
				c5.8,0.3,10.1,3.3,10.1,8.5c0,4.1-2.9,7.6-8.3,8.3v0.2c5.9,0.4,10.4,3.7,10.4,8.8c0,5.5-5,9.1-11.6,9.1h-28.2v37h26.7
				c10,0,18.2-8.1,18.2-18.2V11.5H132z"/>
			
				<linearGradient id="SVGID_3_" gradientUnits="userSpaceOnUse" x1="14.2162" y1="122.5898" x2="54.1619" y2="122.5898" gradientTransform="matrix(1.125 0 0 -1.125 97.7537 196.3468)">
				<stop  offset="0" style="stop-color:#007940"/>
				<stop  offset="0.2285" style="stop-color:#00873F"/>
				<stop  offset="0.7433" style="stop-color:#40A737"/>
				<stop  offset="1" style="stop-color:#5CB531"/>
			</linearGradient>
			<path style="fill:url(#SVGID_3_);" d="M136.9,58.4c0-2.4-1.7-4-3.7-4.3c-0.2,0-0.7-0.1-1-0.1h-9.5v8.8h9.5c0.3,0,0.9,0,1-0.1
				C135.2,62.4,136.9,60.8,136.9,58.4z"/>
		</g>
		
			<linearGradient id="SVGID_4_" gradientUnits="userSpaceOnUse" x1="-75.2087" y1="115.8342" x2="-34.645" y2="115.8342" gradientTransform="matrix(1.125 0 0 -1.125 97.7537 196.3468)">
			<stop  offset="0" style="stop-color:#1F286F"/>
			<stop  offset="0.4751" style="stop-color:#004E94"/>
			<stop  offset="0.8261" style="stop-color:#0066B1"/>
			<stop  offset="1" style="stop-color:#006FBC"/>
		</linearGradient>
		<path style="fill:url(#SVGID_4_);" d="M31.4,11.5c-10,0-18.2,8.1-18.2,18.2v44.9c5.1,2.5,10.4,4.1,15.7,4.1c6.3,0,9.7-3.8,9.7-9
			V48.5h15.6v21.1c0,8.2-5.1,14.9-22.4,14.9c-10.5,0-18.7-2.3-18.7-2.3v38.3h26.7c10,0,18.2-8.1,18.2-18.2V11.5H31.4z"/>
		
			<linearGradient id="SVGID_5_" gradientUnits="userSpaceOnUse" x1="-30.7084" y1="115.7453" x2="8.6869" y2="115.7453" gradientTransform="matrix(1.125 0 0 -1.125 97.7537 196.3468)">
			<stop  offset="0" style="stop-color:#6C2C2F"/>
			<stop  offset="0.1735" style="stop-color:#882730"/>
			<stop  offset="0.5731" style="stop-color:#BE1833"/>
			<stop  offset="0.8585" style="stop-color:#DC0436"/>
			<stop  offset="1" style="stop-color:#E60039"/>
		</linearGradient>
		<path style="fill:url(#SVGID_5_);" d="M81.7,11.5c-10,0-18.2,8.1-18.2,18.2v23.8c4.6-3.9,12.6-6.4,25.5-5.8
			c6.9,0.3,14.3,2.2,14.3,2.2v7.7c-3.7-1.9-8.1-3.6-13.8-4c-9.8-0.7-15.7,4.1-15.7,12.5c0,8.5,5.9,13.3,15.7,12.5
			c5.7-0.4,10.1-2.2,13.8-4v7.7c0,0-7.3,1.9-14.3,2.2c-12.9,0.6-20.9-1.9-25.5-5.8v42h26.7c10,0,18.2-8.1,18.2-18.2v-91H81.7z"/>
	</g>
</g>
</svg>
